Coordinates
version=1
nRows=14
nColumns=40
inDegrees=yes

Units are S.I. units (second, meters, Newtons, ...)
Angles are in degrees.

endheader
time	pelvis_tilt	pelvis_list	pelvis_rotation	pelvis_tx	pelvis_ty	pelvis_tz	hip_flexion_r	hip_adduction_r	hip_rotation_r	knee_angle_r	knee_angle_r_beta	ankle_angle_r	subtalar_angle_r	mtp_angle_r	hip_flexion_l	hip_adduction_l	hip_rotation_l	knee_angle_l	knee_angle_l_beta	ankle_angle_l	subtalar_angle_l	mtp_angle_l	lumbar_extension	lumbar_bending	lumbar_rotation	arm_flex_r	arm_add_r	arm_rot_r	elbow_flex_r	pro_sup_r	wrist_flex_r	wrist_dev_r	arm_flex_l	arm_add_l	arm_rot_l	elbow_flex_l	pro_sup_l	wrist_flex_l	wrist_dev_l
     13.61250000	      0.35765469	     -6.00144578	      0.10702002	      1.10077542	      0.90920201	      0.48641533	     24.07348273	      1.40238351	    -12.00931622	     28.68648858	     28.68648858	      5.87844473	     -7.23117506	     -5.64449508	      4.27109511	    -13.77321161	     -5.56398770	     51.92206821	     51.92206821	     10.64616798	    -18.72477306	     -6.07211730	    -10.51804995	      9.31316292	      2.90045611	    -14.60043606	    -12.00994181	    -11.67202910	     20.67944681	     47.28625283	      0.00000000	      0.00000000	     18.13136226	    -16.27204028	     -5.84845213	     90.13575196	     48.11917660	      0.00000000	      0.00000000
     13.62371429	      0.30863893	     -6.08377668	      0.36186813	      1.09986139	      0.91054881	      0.48823850	     23.43044648	      1.45393785	    -12.58827716	     28.57054364	     28.57054364	      6.66880988	     -6.43948025	     -5.62956503	      7.21656685	    -13.91355615	     -4.33132261	     56.78640581	     56.78640581	     12.96866741	    -18.60211375	      6.24891161	    -10.57215363	      9.39432929	      2.60452552	    -12.66022108	    -12.17035061	    -10.59740974	     20.48798191	     47.20162806	      0.00000000	      0.00000000	     16.19603358	    -15.63858034	     -6.70732116	     90.38160462	     48.18505942	      0.00000000	      0.00000000
     13.63492857	      0.36050784	     -6.38748881	      0.60423105	      1.09899444	      0.91199927	      0.49041180	     22.55372491	      1.88599680	    -12.96514499	     28.18227057	     28.18227057	      7.25049283	     -6.09657965	     -5.76403901	      9.55327790	    -14.80054846	     -4.03945095	     60.26270715	     60.26270715	     11.55042031	    -18.96188523	      6.96693548	    -10.75553221	      9.66690050	      3.11041304	    -11.25069202	    -12.16924627	    -10.45479978	     20.97445719	     47.17966122	      0.00000000	      0.00000000	     14.93407610	    -14.84803647	     -6.27289012	     89.85830062	     48.14165631	      0.00000000	      0.00000000
     13.64614286	      0.28125808	     -6.50350023	      0.89700094	      1.09780745	      0.91343738	      0.49213248	     21.80191250	      2.00933081	    -13.59913757	     27.76333992	     27.76333992	      7.86744582	     -5.25015061	     -5.79987053	     12.29709637	    -15.14281712	     -3.32224788	     63.76884976	     63.76884976	     12.63107191	    -19.04440438	     13.79396663	    -10.73912844	      9.79144085	      3.09970256	     -9.55043594	    -12.32078311	     -9.62503297	     21.41627679	     47.08834253	      0.00000000	      0.00000000	     13.42954052	    -14.26886897	     -6.38913392	     88.65902963	     48.13070270	      0.00000000	      0.00000000
     13.65735714	      0.29193585	     -6.69930861	      1.17314539	      1.09659842	      0.91504540	      0.49398837	     20.89178483	      2.33919837	    -13.99366970	     27.17306129	     27.17306129	      8.30434177	     -4.82237832	     -5.78806368	     14.66553215	    -15.75388318	     -2.98633376	     66.39193612	     66.39193612	     12.23357336	    -19.18356880	     15.01468414	    -10.86399947	      9.94495303	      3.30705712	     -7.91399121	    -12.43437921	     -9.32647979	     22.10325806	     47.04185169	      0.00000000	      0.00000000	     11.99509957	    -13.69581266	     -5.95258482	     87.53386851	     48.07677925	      0.00000000	      0.00000000
     13.66857143	      0.29129242	     -6.82961171	      1.44518462	      1.09530907	      0.91666111	      0.49572885	     20.00077358	      2.61097698	    -14.34443414	     26.57197296	     26.57197296	      8.71377646	     -4.46162720	     -5.79748295	     16.94547272	    -16.23140819	     -2.69339261	     68.46781167	     68.46781167	     11.93814669	    -19.28172407	     15.40265606	    -10.99131004	     10.00909634	      3.67820283	     -6.32250271	    -12.53611837	     -9.22977203	     22.78166698	     47.01714750	      0.00000000	      0.00000000	     10.60103586	    -13.01606430	     -5.48671062	     86.48288193	     48.01744673	      0.00000000	      0.00000000
     13.67978571	      0.29936725	     -6.81755082	      1.75111951	      1.09387720	      0.91844136	      0.49713899	     19.07579886	      2.66925596	    -14.83692136	     25.94966588	     25.94966588	      9.11400076	     -3.68455426	     -5.79886422	     19.21731555	    -16.32551957	     -2.26619449	     70.14828171	     70.14828171	     12.59251285	    -19.31411642	     17.81659331	    -11.06014084	      9.96546644	      3.75556478	     -4.46874904	    -12.66899079	     -8.83109172	     23.50485315	     46.95731278	      0.00000000	      0.00000000	      9.47407231	    -12.38504320	     -5.22952788	     83.80281418	     47.94921031	      0.00000000	      0.00000000
     13.69100000	      0.30164196	     -6.85929624	      2.06939058	      1.09242254	      0.92022650	      0.49857268	     18.10673326	      2.87180667	    -15.14838945	     25.17828969	     25.17828969	      9.39994674	     -3.30984865	     -5.72973565	     21.34124623	    -16.45263578	     -1.88832195	     71.19506187	     71.19506187	     12.65905458	    -19.33762343	     17.89307972	    -11.16993030	      9.93414694	      3.81803736	     -2.58763380	    -12.77190482	     -8.77779643	     24.36935447	     46.92963053	      0.00000000	      0.00000000	      7.98914865	    -11.97932195	     -4.68846595	     82.18816158	     47.87532743	      0.00000000	      0.00000000
     13.70221429	      0.34014561	     -6.74231184	      2.37570071	      1.09092276	      0.92209099	      0.49973295	     17.11535469	      2.85387424	    -15.55734701	     24.47059600	     24.47059600	      9.72736368	     -2.63072815	     -5.76668060	     23.26383367	    -16.26533039	     -1.55412903	     71.68955256	     71.68955256	     12.97482317	    -19.32194533	     18.36622357	    -11.27613431	      9.75549155	      3.97524453	     -0.66506221	    -12.90251906	     -8.56669083	     25.14632663	     46.88343834	      0.00000000	      0.00000000	      7.08739203	    -11.35533300	     -4.21523345	     78.92792383	     47.78428504	      0.00000000	      0.00000000
     13.71342857	      0.36758931	     -6.66965211	      2.69295763	      1.08938416	      0.92394952	      0.50084161	     16.07608885	      2.94835912	    -15.84869321	     23.60659950	     23.60659950	      9.95825274	     -2.19157069	     -5.70259041	     25.07191359	    -16.03516849	     -1.17754237	     71.65361648	     71.65361648	     13.09314779	    -19.28818487	     18.20475678	    -11.40926252	      9.61459248	      3.80368643	      1.48500629	    -12.96205719	     -8.55393853	     26.18398631	     46.85235040	      0.00000000	      0.00000000	      5.62483850	    -11.09382199	     -3.64772434	     76.67113962	     47.69742884	      0.00000000	      0.00000000
     13.72464286	      0.35892952	     -6.48367738	      2.93584189	      1.08781592	      0.92569790	      0.50176661	     15.13121897	      2.91731637	    -16.02666474	     22.85245000	     22.85245000	     10.20166098	     -1.79708218	     -5.67779075	     26.69674935	    -15.60881568	     -0.91490530	     71.07595932	     71.07595932	     13.18839121	    -19.22721090	     18.00555086	    -11.53598334	      9.32153251	      3.90384597	      3.54940447	    -13.07581868	     -8.53827463	     27.11895537	     46.82651328	      0.00000000	      0.00000000	      4.23676097	    -10.55917867	     -3.10844262	     74.60546071	     47.61537746	      0.00000000	      0.00000000
     13.73585714	      0.39842559	     -6.34934523	      3.26733487	      1.08629171	      0.92747417	      0.50246223	     14.02453954	      2.87505039	    -16.62172364	     21.92000168	     21.92000168	     10.40163228	     -0.84882170	     -5.93807918	     28.11255604	    -15.19061233	     -0.60846751	     69.97368637	     69.97368637	     12.96546214	    -19.16210517	     17.21506568	    -11.54273642	      9.20199568	      4.08687641	      5.63019927	    -13.23663087	     -8.29603173	     28.06649709	     46.76751728	      0.00000000	      0.00000000	      4.16466013	     -9.88699782	     -2.57665770	     68.87992972	     47.48129621	      0.00000000	      0.00000000
     13.74707143	      0.42905858	     -6.23969583	      3.54246494	      1.08477163	      0.92910874	      0.50314756	     12.92289393	      2.96955956	    -16.82998479	     20.92443233	     20.92443233	     10.58429915	     -0.43757138	     -5.89673282	     29.36452667	    -14.76727205	     -0.32531296	     68.43389452	     68.43389452	     12.83213124	    -19.07665474	     17.00735740	    -11.67588948	      9.03152030	      3.75899206	      7.99512421	    -13.21237359	     -8.28546710	     29.41611322	     46.72256771	      0.00000000	      0.00000000	      2.77249118	     -9.73888471	     -1.95725816	     66.20205210	     47.38193788	      0.00000000	      0.00000000
     13.75828571	      0.39659761	     -6.14995655	      3.77903586	      1.08324988	      0.93047877	      0.50367351	     11.92054578	      3.02239789	    -17.23380468	     20.00162426	     20.00162426	     10.71342296	      0.28854180	     -6.18189894	     30.48954681	    -14.37748517	     -0.11805725	     66.44721946	     66.44721946	     12.46262947	    -18.99877996	     16.37450134	    -11.65057554	      8.92979785	      3.96868965	     10.08211192	    -13.40800793	     -8.03491921	     30.72301805	     46.65099805	      0.00000000	      0.00000000	      2.35866749	     -9.12480953	     -1.32945392	     61.41409748	     47.25445633	      0.00000000	      0.00000000
